<mxfile host="app.diagrams.net" agent="Mozilla/5.0 (Windows NT 10.0; Win64; x64) AppleWebKit/537.36 (KHTML, like Gecko) Chrome/129.0.0.0 Safari/537.36 Edg/129.0.0.0" version="24.7.17">
  <diagram id="C5RBs43oDa-KdzZeNtuy" name="Page-1">
    <mxGraphModel dx="1042" dy="531" grid="1" gridSize="10" guides="1" tooltips="1" connect="1" arrows="1" fold="1" page="1" pageScale="1" pageWidth="1169" pageHeight="827" math="0" shadow="0">
      <root>
        <mxCell id="WIyWlLk6GJQsqaUBKTNV-0" />
        <mxCell id="WIyWlLk6GJQsqaUBKTNV-1" parent="WIyWlLk6GJQsqaUBKTNV-0" />
        <mxCell id="zkfFHV4jXpPFQw0GAbJ--0" value="SocketManager" style="swimlane;fontStyle=2;align=center;verticalAlign=top;childLayout=stackLayout;horizontal=1;startSize=26;horizontalStack=0;resizeParent=1;resizeLast=0;collapsible=1;marginBottom=0;rounded=0;shadow=0;strokeWidth=1;" parent="WIyWlLk6GJQsqaUBKTNV-1" vertex="1">
          <mxGeometry x="299" y="930" width="240" height="170" as="geometry">
            <mxRectangle x="230" y="140" width="160" height="26" as="alternateBounds" />
          </mxGeometry>
        </mxCell>
        <mxCell id="zkfFHV4jXpPFQw0GAbJ--4" value="" style="line;html=1;strokeWidth=1;align=left;verticalAlign=middle;spacingTop=-1;spacingLeft=3;spacingRight=3;rotatable=0;labelPosition=right;points=[];portConstraint=eastwest;" parent="zkfFHV4jXpPFQw0GAbJ--0" vertex="1">
          <mxGeometry y="26" width="240" height="8" as="geometry" />
        </mxCell>
        <mxCell id="zkfFHV4jXpPFQw0GAbJ--5" value="staticÂ SocketManager&amp; getInstance()" style="text;align=left;verticalAlign=top;spacingLeft=4;spacingRight=4;overflow=hidden;rotatable=0;points=[[0,0.5],[1,0.5]];portConstraint=eastwest;" parent="zkfFHV4jXpPFQw0GAbJ--0" vertex="1">
          <mxGeometry y="34" width="240" height="26" as="geometry" />
        </mxCell>
        <mxCell id="0Nce4asguJwAg-4bx_0n-0" value="void createSocket(uint16_t port)" style="text;align=left;verticalAlign=top;spacingLeft=4;spacingRight=4;overflow=hidden;rotatable=0;points=[[0,0.5],[1,0.5]];portConstraint=eastwest;" parent="zkfFHV4jXpPFQw0GAbJ--0" vertex="1">
          <mxGeometry y="60" width="240" height="26" as="geometry" />
        </mxCell>
        <mxCell id="EGtFK9P1O77gnGLV0rn0-0" value="void listenConnections(int n_connections)" style="text;align=left;verticalAlign=top;spacingLeft=4;spacingRight=4;overflow=hidden;rotatable=0;points=[[0,0.5],[1,0.5]];portConstraint=eastwest;" parent="zkfFHV4jXpPFQw0GAbJ--0" vertex="1">
          <mxGeometry y="86" width="240" height="26" as="geometry" />
        </mxCell>
        <mxCell id="EGtFK9P1O77gnGLV0rn0-2" value="std::optional&lt;int&gt; acceptConnection()" style="text;align=left;verticalAlign=top;spacingLeft=4;spacingRight=4;overflow=hidden;rotatable=0;points=[[0,0.5],[1,0.5]];portConstraint=eastwest;" parent="zkfFHV4jXpPFQw0GAbJ--0" vertex="1">
          <mxGeometry y="112" width="240" height="26" as="geometry" />
        </mxCell>
        <mxCell id="EGtFK9P1O77gnGLV0rn0-3" value="void closeSocket()" style="text;align=left;verticalAlign=top;spacingLeft=4;spacingRight=4;overflow=hidden;rotatable=0;points=[[0,0.5],[1,0.5]];portConstraint=eastwest;" parent="zkfFHV4jXpPFQw0GAbJ--0" vertex="1">
          <mxGeometry y="138" width="240" height="26" as="geometry" />
        </mxCell>
        <mxCell id="EGtFK9P1O77gnGLV0rn0-80" style="edgeStyle=orthogonalEdgeStyle;rounded=0;orthogonalLoop=1;jettySize=auto;html=1;entryX=0.25;entryY=0;entryDx=0;entryDy=0;" parent="WIyWlLk6GJQsqaUBKTNV-1" source="EGtFK9P1O77gnGLV0rn0-4" target="EGtFK9P1O77gnGLV0rn0-74" edge="1">
          <mxGeometry relative="1" as="geometry" />
        </mxCell>
        <mxCell id="EGtFK9P1O77gnGLV0rn0-4" value="RequestParser&#xa;" style="swimlane;fontStyle=2;align=center;verticalAlign=top;childLayout=stackLayout;horizontal=1;startSize=26;horizontalStack=0;resizeParent=1;resizeLast=0;collapsible=1;marginBottom=0;rounded=0;shadow=0;strokeWidth=1;" parent="WIyWlLk6GJQsqaUBKTNV-1" vertex="1">
          <mxGeometry x="219" y="666" width="250" height="60" as="geometry">
            <mxRectangle x="230" y="140" width="160" height="26" as="alternateBounds" />
          </mxGeometry>
        </mxCell>
        <mxCell id="EGtFK9P1O77gnGLV0rn0-5" value="" style="line;html=1;strokeWidth=1;align=left;verticalAlign=middle;spacingTop=-1;spacingLeft=3;spacingRight=3;rotatable=0;labelPosition=right;points=[];portConstraint=eastwest;" parent="EGtFK9P1O77gnGLV0rn0-4" vertex="1">
          <mxGeometry y="26" width="250" height="8" as="geometry" />
        </mxCell>
        <mxCell id="EGtFK9P1O77gnGLV0rn0-6" value="static HttpRequest parse(string raw_request);" style="text;align=left;verticalAlign=top;spacingLeft=4;spacingRight=4;overflow=hidden;rotatable=0;points=[[0,0.5],[1,0.5]];portConstraint=eastwest;" parent="EGtFK9P1O77gnGLV0rn0-4" vertex="1">
          <mxGeometry y="34" width="250" height="26" as="geometry" />
        </mxCell>
        <mxCell id="EGtFK9P1O77gnGLV0rn0-52" style="edgeStyle=orthogonalEdgeStyle;rounded=0;orthogonalLoop=1;jettySize=auto;html=1;entryX=0.25;entryY=0;entryDx=0;entryDy=0;" parent="WIyWlLk6GJQsqaUBKTNV-1" source="EGtFK9P1O77gnGLV0rn0-11" target="EGtFK9P1O77gnGLV0rn0-39" edge="1">
          <mxGeometry relative="1" as="geometry" />
        </mxCell>
        <mxCell id="EGtFK9P1O77gnGLV0rn0-11" value="Method" style="swimlane;fontStyle=2;align=center;verticalAlign=top;childLayout=stackLayout;horizontal=1;startSize=26;horizontalStack=0;resizeParent=1;resizeLast=0;collapsible=1;marginBottom=0;rounded=0;shadow=0;strokeWidth=1;" parent="WIyWlLk6GJQsqaUBKTNV-1" vertex="1">
          <mxGeometry x="259" y="20" width="220" height="86" as="geometry">
            <mxRectangle x="230" y="140" width="160" height="26" as="alternateBounds" />
          </mxGeometry>
        </mxCell>
        <mxCell id="EGtFK9P1O77gnGLV0rn0-14" value="Method: enum" style="text;align=left;verticalAlign=top;spacingLeft=4;spacingRight=4;overflow=hidden;rotatable=0;points=[[0,0.5],[1,0.5]];portConstraint=eastwest;" parent="EGtFK9P1O77gnGLV0rn0-11" vertex="1">
          <mxGeometry y="26" width="220" height="26" as="geometry" />
        </mxCell>
        <mxCell id="EGtFK9P1O77gnGLV0rn0-12" value="" style="line;html=1;strokeWidth=1;align=left;verticalAlign=middle;spacingTop=-1;spacingLeft=3;spacingRight=3;rotatable=0;labelPosition=right;points=[];portConstraint=eastwest;" parent="EGtFK9P1O77gnGLV0rn0-11" vertex="1">
          <mxGeometry y="52" width="220" height="8" as="geometry" />
        </mxCell>
        <mxCell id="EGtFK9P1O77gnGLV0rn0-13" value="static Method getMethod(string string)" style="text;align=left;verticalAlign=top;spacingLeft=4;spacingRight=4;overflow=hidden;rotatable=0;points=[[0,0.5],[1,0.5]];portConstraint=eastwest;" parent="EGtFK9P1O77gnGLV0rn0-11" vertex="1">
          <mxGeometry y="60" width="220" height="26" as="geometry" />
        </mxCell>
        <mxCell id="EGtFK9P1O77gnGLV0rn0-37" style="edgeStyle=orthogonalEdgeStyle;rounded=0;orthogonalLoop=1;jettySize=auto;html=1;entryX=0.25;entryY=0;entryDx=0;entryDy=0;" parent="WIyWlLk6GJQsqaUBKTNV-1" source="EGtFK9P1O77gnGLV0rn0-15" target="EGtFK9P1O77gnGLV0rn0-24" edge="1">
          <mxGeometry relative="1" as="geometry" />
        </mxCell>
        <mxCell id="EGtFK9P1O77gnGLV0rn0-15" value="HttpVersion" style="swimlane;fontStyle=2;align=center;verticalAlign=top;childLayout=stackLayout;horizontal=1;startSize=26;horizontalStack=0;resizeParent=1;resizeLast=0;collapsible=1;marginBottom=0;rounded=0;shadow=0;strokeWidth=1;" parent="WIyWlLk6GJQsqaUBKTNV-1" vertex="1">
          <mxGeometry x="519" y="20" width="260" height="112" as="geometry">
            <mxRectangle x="230" y="140" width="160" height="26" as="alternateBounds" />
          </mxGeometry>
        </mxCell>
        <mxCell id="EGtFK9P1O77gnGLV0rn0-16" value="HttpVersion: enum" style="text;align=left;verticalAlign=top;spacingLeft=4;spacingRight=4;overflow=hidden;rotatable=0;points=[[0,0.5],[1,0.5]];portConstraint=eastwest;" parent="EGtFK9P1O77gnGLV0rn0-15" vertex="1">
          <mxGeometry y="26" width="260" height="26" as="geometry" />
        </mxCell>
        <mxCell id="EGtFK9P1O77gnGLV0rn0-17" value="" style="line;html=1;strokeWidth=1;align=left;verticalAlign=middle;spacingTop=-1;spacingLeft=3;spacingRight=3;rotatable=0;labelPosition=right;points=[];portConstraint=eastwest;" parent="EGtFK9P1O77gnGLV0rn0-15" vertex="1">
          <mxGeometry y="52" width="260" height="8" as="geometry" />
        </mxCell>
        <mxCell id="EGtFK9P1O77gnGLV0rn0-18" value="static HttpVersion getHttpVersion(string input)" style="text;align=left;verticalAlign=top;spacingLeft=4;spacingRight=4;overflow=hidden;rotatable=0;points=[[0,0.5],[1,0.5]];portConstraint=eastwest;" parent="EGtFK9P1O77gnGLV0rn0-15" vertex="1">
          <mxGeometry y="60" width="260" height="26" as="geometry" />
        </mxCell>
        <mxCell id="EGtFK9P1O77gnGLV0rn0-19" value="static string toString(HttpVersion version)" style="text;align=left;verticalAlign=top;spacingLeft=4;spacingRight=4;overflow=hidden;rotatable=0;points=[[0,0.5],[1,0.5]];portConstraint=eastwest;" parent="EGtFK9P1O77gnGLV0rn0-15" vertex="1">
          <mxGeometry y="86" width="260" height="26" as="geometry" />
        </mxCell>
        <mxCell id="EGtFK9P1O77gnGLV0rn0-38" style="edgeStyle=orthogonalEdgeStyle;rounded=0;orthogonalLoop=1;jettySize=auto;html=1;entryX=0.75;entryY=0;entryDx=0;entryDy=0;" parent="WIyWlLk6GJQsqaUBKTNV-1" source="EGtFK9P1O77gnGLV0rn0-20" target="EGtFK9P1O77gnGLV0rn0-24" edge="1">
          <mxGeometry relative="1" as="geometry" />
        </mxCell>
        <mxCell id="EGtFK9P1O77gnGLV0rn0-20" value="StatusCode&#xa;" style="swimlane;fontStyle=2;align=center;verticalAlign=top;childLayout=stackLayout;horizontal=1;startSize=26;horizontalStack=0;resizeParent=1;resizeLast=0;collapsible=1;marginBottom=0;rounded=0;shadow=0;strokeWidth=1;" parent="WIyWlLk6GJQsqaUBKTNV-1" vertex="1">
          <mxGeometry x="809" y="20" width="340" height="86" as="geometry">
            <mxRectangle x="230" y="140" width="160" height="26" as="alternateBounds" />
          </mxGeometry>
        </mxCell>
        <mxCell id="EGtFK9P1O77gnGLV0rn0-21" value="StatusCode: enum" style="text;align=left;verticalAlign=top;spacingLeft=4;spacingRight=4;overflow=hidden;rotatable=0;points=[[0,0.5],[1,0.5]];portConstraint=eastwest;" parent="EGtFK9P1O77gnGLV0rn0-20" vertex="1">
          <mxGeometry y="26" width="340" height="26" as="geometry" />
        </mxCell>
        <mxCell id="EGtFK9P1O77gnGLV0rn0-22" value="" style="line;html=1;strokeWidth=1;align=left;verticalAlign=middle;spacingTop=-1;spacingLeft=3;spacingRight=3;rotatable=0;labelPosition=right;points=[];portConstraint=eastwest;" parent="EGtFK9P1O77gnGLV0rn0-20" vertex="1">
          <mxGeometry y="52" width="340" height="8" as="geometry" />
        </mxCell>
        <mxCell id="EGtFK9P1O77gnGLV0rn0-23" value="static string getHttpStatusDescription(HttpStatusCode code)" style="text;align=left;verticalAlign=top;spacingLeft=4;spacingRight=4;overflow=hidden;rotatable=0;points=[[0,0.5],[1,0.5]];portConstraint=eastwest;" parent="EGtFK9P1O77gnGLV0rn0-20" vertex="1">
          <mxGeometry y="60" width="340" height="26" as="geometry" />
        </mxCell>
        <mxCell id="EGtFK9P1O77gnGLV0rn0-72" style="edgeStyle=orthogonalEdgeStyle;rounded=0;orthogonalLoop=1;jettySize=auto;html=1;entryX=0.75;entryY=0;entryDx=0;entryDy=0;" parent="WIyWlLk6GJQsqaUBKTNV-1" source="EGtFK9P1O77gnGLV0rn0-24" target="EGtFK9P1O77gnGLV0rn0-63" edge="1">
          <mxGeometry relative="1" as="geometry" />
        </mxCell>
        <mxCell id="EGtFK9P1O77gnGLV0rn0-24" value="HttpResponse" style="swimlane;fontStyle=2;align=center;verticalAlign=top;childLayout=stackLayout;horizontal=1;startSize=26;horizontalStack=0;resizeParent=1;resizeLast=0;collapsible=1;marginBottom=0;rounded=0;shadow=0;strokeWidth=1;" parent="WIyWlLk6GJQsqaUBKTNV-1" vertex="1">
          <mxGeometry x="729" y="190" width="280" height="224" as="geometry">
            <mxRectangle x="230" y="140" width="160" height="26" as="alternateBounds" />
          </mxGeometry>
        </mxCell>
        <mxCell id="EGtFK9P1O77gnGLV0rn0-28" value="Builder" style="swimlane;fontStyle=2;align=center;verticalAlign=top;childLayout=stackLayout;horizontal=1;startSize=26;horizontalStack=0;resizeParent=1;resizeLast=0;collapsible=1;marginBottom=0;rounded=0;shadow=0;strokeWidth=1;" parent="EGtFK9P1O77gnGLV0rn0-24" vertex="1">
          <mxGeometry y="26" width="280" height="164" as="geometry">
            <mxRectangle y="26" width="220" height="26" as="alternateBounds" />
          </mxGeometry>
        </mxCell>
        <mxCell id="EGtFK9P1O77gnGLV0rn0-30" value="" style="line;html=1;strokeWidth=1;align=left;verticalAlign=middle;spacingTop=-1;spacingLeft=3;spacingRight=3;rotatable=0;labelPosition=right;points=[];portConstraint=eastwest;" parent="EGtFK9P1O77gnGLV0rn0-28" vertex="1">
          <mxGeometry y="26" width="280" height="8" as="geometry" />
        </mxCell>
        <mxCell id="EGtFK9P1O77gnGLV0rn0-31" value="Builder&amp; setHttpVersion(HttpVersion http_version)" style="text;align=left;verticalAlign=top;spacingLeft=4;spacingRight=4;overflow=hidden;rotatable=0;points=[[0,0.5],[1,0.5]];portConstraint=eastwest;" parent="EGtFK9P1O77gnGLV0rn0-28" vertex="1">
          <mxGeometry y="34" width="280" height="26" as="geometry" />
        </mxCell>
        <mxCell id="EGtFK9P1O77gnGLV0rn0-32" value="Builder&amp; setStatusCode(StatusCode status_code)" style="text;align=left;verticalAlign=top;spacingLeft=4;spacingRight=4;overflow=hidden;rotatable=0;points=[[0,0.5],[1,0.5]];portConstraint=eastwest;" parent="EGtFK9P1O77gnGLV0rn0-28" vertex="1">
          <mxGeometry y="60" width="280" height="26" as="geometry" />
        </mxCell>
        <mxCell id="EGtFK9P1O77gnGLV0rn0-33" value="Builder&amp; addHeader(string key, string value)" style="text;align=left;verticalAlign=top;spacingLeft=4;spacingRight=4;overflow=hidden;rotatable=0;points=[[0,0.5],[1,0.5]];portConstraint=eastwest;" parent="EGtFK9P1O77gnGLV0rn0-28" vertex="1">
          <mxGeometry y="86" width="280" height="26" as="geometry" />
        </mxCell>
        <mxCell id="EGtFK9P1O77gnGLV0rn0-34" value="Builder&amp; setBody(string body)" style="text;align=left;verticalAlign=top;spacingLeft=4;spacingRight=4;overflow=hidden;rotatable=0;points=[[0,0.5],[1,0.5]];portConstraint=eastwest;" parent="EGtFK9P1O77gnGLV0rn0-28" vertex="1">
          <mxGeometry y="112" width="280" height="26" as="geometry" />
        </mxCell>
        <mxCell id="EGtFK9P1O77gnGLV0rn0-35" value="HttpResponse build()" style="text;align=left;verticalAlign=top;spacingLeft=4;spacingRight=4;overflow=hidden;rotatable=0;points=[[0,0.5],[1,0.5]];portConstraint=eastwest;" parent="EGtFK9P1O77gnGLV0rn0-28" vertex="1">
          <mxGeometry y="138" width="280" height="26" as="geometry" />
        </mxCell>
        <mxCell id="EGtFK9P1O77gnGLV0rn0-26" value="" style="line;html=1;strokeWidth=1;align=left;verticalAlign=middle;spacingTop=-1;spacingLeft=3;spacingRight=3;rotatable=0;labelPosition=right;points=[];portConstraint=eastwest;" parent="EGtFK9P1O77gnGLV0rn0-24" vertex="1">
          <mxGeometry y="190" width="280" height="8" as="geometry" />
        </mxCell>
        <mxCell id="EGtFK9P1O77gnGLV0rn0-27" value="string buildResponse()" style="text;align=left;verticalAlign=top;spacingLeft=4;spacingRight=4;overflow=hidden;rotatable=0;points=[[0,0.5],[1,0.5]];portConstraint=eastwest;" parent="EGtFK9P1O77gnGLV0rn0-24" vertex="1">
          <mxGeometry y="198" width="280" height="26" as="geometry" />
        </mxCell>
        <mxCell id="EGtFK9P1O77gnGLV0rn0-73" style="edgeStyle=orthogonalEdgeStyle;rounded=0;orthogonalLoop=1;jettySize=auto;html=1;entryX=0.25;entryY=0;entryDx=0;entryDy=0;" parent="WIyWlLk6GJQsqaUBKTNV-1" source="EGtFK9P1O77gnGLV0rn0-39" target="EGtFK9P1O77gnGLV0rn0-63" edge="1">
          <mxGeometry relative="1" as="geometry" />
        </mxCell>
        <mxCell id="EGtFK9P1O77gnGLV0rn0-39" value="HttpRequest" style="swimlane;fontStyle=2;align=center;verticalAlign=top;childLayout=stackLayout;horizontal=1;startSize=26;horizontalStack=0;resizeParent=1;resizeLast=0;collapsible=1;marginBottom=0;rounded=0;shadow=0;strokeWidth=1;" parent="WIyWlLk6GJQsqaUBKTNV-1" vertex="1">
          <mxGeometry x="319" y="190" width="280" height="406" as="geometry">
            <mxRectangle x="230" y="140" width="160" height="26" as="alternateBounds" />
          </mxGeometry>
        </mxCell>
        <mxCell id="EGtFK9P1O77gnGLV0rn0-40" value="Builder" style="swimlane;fontStyle=2;align=center;verticalAlign=top;childLayout=stackLayout;horizontal=1;startSize=26;horizontalStack=0;resizeParent=1;resizeLast=0;collapsible=1;marginBottom=0;rounded=0;shadow=0;strokeWidth=1;" parent="EGtFK9P1O77gnGLV0rn0-39" vertex="1">
          <mxGeometry y="26" width="280" height="216" as="geometry">
            <mxRectangle y="26" width="220" height="26" as="alternateBounds" />
          </mxGeometry>
        </mxCell>
        <mxCell id="EGtFK9P1O77gnGLV0rn0-41" value="" style="line;html=1;strokeWidth=1;align=left;verticalAlign=middle;spacingTop=-1;spacingLeft=3;spacingRight=3;rotatable=0;labelPosition=right;points=[];portConstraint=eastwest;" parent="EGtFK9P1O77gnGLV0rn0-40" vertex="1">
          <mxGeometry y="26" width="280" height="8" as="geometry" />
        </mxCell>
        <mxCell id="EGtFK9P1O77gnGLV0rn0-42" value="Builder()" style="text;align=left;verticalAlign=top;spacingLeft=4;spacingRight=4;overflow=hidden;rotatable=0;points=[[0,0.5],[1,0.5]];portConstraint=eastwest;" parent="EGtFK9P1O77gnGLV0rn0-40" vertex="1">
          <mxGeometry y="34" width="280" height="26" as="geometry" />
        </mxCell>
        <mxCell id="EGtFK9P1O77gnGLV0rn0-43" value="Builder&amp; setMethod(Method method)" style="text;align=left;verticalAlign=top;spacingLeft=4;spacingRight=4;overflow=hidden;rotatable=0;points=[[0,0.5],[1,0.5]];portConstraint=eastwest;" parent="EGtFK9P1O77gnGLV0rn0-40" vertex="1">
          <mxGeometry y="60" width="280" height="26" as="geometry" />
        </mxCell>
        <mxCell id="EGtFK9P1O77gnGLV0rn0-50" value="Builder&amp; setUrl(string url)" style="text;align=left;verticalAlign=top;spacingLeft=4;spacingRight=4;overflow=hidden;rotatable=0;points=[[0,0.5],[1,0.5]];portConstraint=eastwest;" parent="EGtFK9P1O77gnGLV0rn0-40" vertex="1">
          <mxGeometry y="86" width="280" height="26" as="geometry" />
        </mxCell>
        <mxCell id="EGtFK9P1O77gnGLV0rn0-49" value="Builder&amp; setHttpVersion(HttpVersion http_version)" style="text;align=left;verticalAlign=top;spacingLeft=4;spacingRight=4;overflow=hidden;rotatable=0;points=[[0,0.5],[1,0.5]];portConstraint=eastwest;" parent="EGtFK9P1O77gnGLV0rn0-40" vertex="1">
          <mxGeometry y="112" width="280" height="26" as="geometry" />
        </mxCell>
        <mxCell id="EGtFK9P1O77gnGLV0rn0-44" value="Builder&amp; addHeader(string key, string value)" style="text;align=left;verticalAlign=top;spacingLeft=4;spacingRight=4;overflow=hidden;rotatable=0;points=[[0,0.5],[1,0.5]];portConstraint=eastwest;" parent="EGtFK9P1O77gnGLV0rn0-40" vertex="1">
          <mxGeometry y="138" width="280" height="26" as="geometry" />
        </mxCell>
        <mxCell id="EGtFK9P1O77gnGLV0rn0-45" value="Builder&amp; setHeaders(HttpHeaders headers)" style="text;align=left;verticalAlign=top;spacingLeft=4;spacingRight=4;overflow=hidden;rotatable=0;points=[[0,0.5],[1,0.5]];portConstraint=eastwest;" parent="EGtFK9P1O77gnGLV0rn0-40" vertex="1">
          <mxGeometry y="164" width="280" height="26" as="geometry" />
        </mxCell>
        <mxCell id="EGtFK9P1O77gnGLV0rn0-46" value="HttpResponse build()" style="text;align=left;verticalAlign=top;spacingLeft=4;spacingRight=4;overflow=hidden;rotatable=0;points=[[0,0.5],[1,0.5]];portConstraint=eastwest;" parent="EGtFK9P1O77gnGLV0rn0-40" vertex="1">
          <mxGeometry y="190" width="280" height="26" as="geometry" />
        </mxCell>
        <mxCell id="EGtFK9P1O77gnGLV0rn0-47" value="" style="line;html=1;strokeWidth=1;align=left;verticalAlign=middle;spacingTop=-1;spacingLeft=3;spacingRight=3;rotatable=0;labelPosition=right;points=[];portConstraint=eastwest;" parent="EGtFK9P1O77gnGLV0rn0-39" vertex="1">
          <mxGeometry y="242" width="280" height="8" as="geometry" />
        </mxCell>
        <mxCell id="EGtFK9P1O77gnGLV0rn0-48" value="HttpRequest()" style="text;align=left;verticalAlign=top;spacingLeft=4;spacingRight=4;overflow=hidden;rotatable=0;points=[[0,0.5],[1,0.5]];portConstraint=eastwest;" parent="EGtFK9P1O77gnGLV0rn0-39" vertex="1">
          <mxGeometry y="250" width="280" height="26" as="geometry" />
        </mxCell>
        <mxCell id="EGtFK9P1O77gnGLV0rn0-58" value="Method getMethod()" style="text;align=left;verticalAlign=top;spacingLeft=4;spacingRight=4;overflow=hidden;rotatable=0;points=[[0,0.5],[1,0.5]];portConstraint=eastwest;" parent="EGtFK9P1O77gnGLV0rn0-39" vertex="1">
          <mxGeometry y="276" width="280" height="26" as="geometry" />
        </mxCell>
        <mxCell id="EGtFK9P1O77gnGLV0rn0-59" value="string getUrl()" style="text;align=left;verticalAlign=top;spacingLeft=4;spacingRight=4;overflow=hidden;rotatable=0;points=[[0,0.5],[1,0.5]];portConstraint=eastwest;" parent="EGtFK9P1O77gnGLV0rn0-39" vertex="1">
          <mxGeometry y="302" width="280" height="26" as="geometry" />
        </mxCell>
        <mxCell id="EGtFK9P1O77gnGLV0rn0-60" value="HttpVersion getHttpVersion()" style="text;align=left;verticalAlign=top;spacingLeft=4;spacingRight=4;overflow=hidden;rotatable=0;points=[[0,0.5],[1,0.5]];portConstraint=eastwest;" parent="EGtFK9P1O77gnGLV0rn0-39" vertex="1">
          <mxGeometry y="328" width="280" height="26" as="geometry" />
        </mxCell>
        <mxCell id="EGtFK9P1O77gnGLV0rn0-61" value="string getHeader(string key)" style="text;align=left;verticalAlign=top;spacingLeft=4;spacingRight=4;overflow=hidden;rotatable=0;points=[[0,0.5],[1,0.5]];portConstraint=eastwest;" parent="EGtFK9P1O77gnGLV0rn0-39" vertex="1">
          <mxGeometry y="354" width="280" height="26" as="geometry" />
        </mxCell>
        <mxCell id="EGtFK9P1O77gnGLV0rn0-62" value="HttpHeaders getHeaders()" style="text;align=left;verticalAlign=top;spacingLeft=4;spacingRight=4;overflow=hidden;rotatable=0;points=[[0,0.5],[1,0.5]];portConstraint=eastwest;" parent="EGtFK9P1O77gnGLV0rn0-39" vertex="1">
          <mxGeometry y="380" width="280" height="26" as="geometry" />
        </mxCell>
        <mxCell id="EGtFK9P1O77gnGLV0rn0-51" style="edgeStyle=orthogonalEdgeStyle;rounded=0;orthogonalLoop=1;jettySize=auto;html=1;" parent="WIyWlLk6GJQsqaUBKTNV-1" source="EGtFK9P1O77gnGLV0rn0-19" target="EGtFK9P1O77gnGLV0rn0-39" edge="1">
          <mxGeometry relative="1" as="geometry">
            <mxPoint x="489" y="170" as="targetPoint" />
          </mxGeometry>
        </mxCell>
        <mxCell id="EGtFK9P1O77gnGLV0rn0-53" value="HttpHeaders" style="swimlane;fontStyle=2;align=center;verticalAlign=top;childLayout=stackLayout;horizontal=1;startSize=26;horizontalStack=0;resizeParent=1;resizeLast=0;collapsible=1;marginBottom=0;rounded=0;shadow=0;strokeWidth=1;" parent="WIyWlLk6GJQsqaUBKTNV-1" vertex="1">
          <mxGeometry x="9" y="120" width="220" height="60" as="geometry">
            <mxRectangle x="230" y="140" width="160" height="26" as="alternateBounds" />
          </mxGeometry>
        </mxCell>
        <mxCell id="EGtFK9P1O77gnGLV0rn0-54" value="HttpHeaders: map&lt;string, string&gt;" style="text;align=left;verticalAlign=top;spacingLeft=4;spacingRight=4;overflow=hidden;rotatable=0;points=[[0,0.5],[1,0.5]];portConstraint=eastwest;" parent="EGtFK9P1O77gnGLV0rn0-53" vertex="1">
          <mxGeometry y="26" width="220" height="26" as="geometry" />
        </mxCell>
        <mxCell id="EGtFK9P1O77gnGLV0rn0-55" value="" style="line;html=1;strokeWidth=1;align=left;verticalAlign=middle;spacingTop=-1;spacingLeft=3;spacingRight=3;rotatable=0;labelPosition=right;points=[];portConstraint=eastwest;" parent="EGtFK9P1O77gnGLV0rn0-53" vertex="1">
          <mxGeometry y="52" width="220" height="8" as="geometry" />
        </mxCell>
        <mxCell id="EGtFK9P1O77gnGLV0rn0-57" style="edgeStyle=orthogonalEdgeStyle;rounded=0;orthogonalLoop=1;jettySize=auto;html=1;entryX=0.068;entryY=-0.014;entryDx=0;entryDy=0;entryPerimeter=0;" parent="WIyWlLk6GJQsqaUBKTNV-1" source="EGtFK9P1O77gnGLV0rn0-54" target="EGtFK9P1O77gnGLV0rn0-39" edge="1">
          <mxGeometry relative="1" as="geometry" />
        </mxCell>
        <mxCell id="EGtFK9P1O77gnGLV0rn0-78" style="edgeStyle=orthogonalEdgeStyle;rounded=0;orthogonalLoop=1;jettySize=auto;html=1;entryX=0.75;entryY=0;entryDx=0;entryDy=0;" parent="WIyWlLk6GJQsqaUBKTNV-1" source="EGtFK9P1O77gnGLV0rn0-63" target="EGtFK9P1O77gnGLV0rn0-74" edge="1">
          <mxGeometry relative="1" as="geometry" />
        </mxCell>
        <mxCell id="EGtFK9P1O77gnGLV0rn0-63" value="IRequestHandler" style="swimlane;fontStyle=2;align=center;verticalAlign=top;childLayout=stackLayout;horizontal=1;startSize=26;horizontalStack=0;resizeParent=1;resizeLast=0;collapsible=1;marginBottom=0;rounded=0;shadow=0;strokeWidth=1;" parent="WIyWlLk6GJQsqaUBKTNV-1" vertex="1">
          <mxGeometry x="539" y="640" width="280" height="86" as="geometry">
            <mxRectangle x="230" y="140" width="160" height="26" as="alternateBounds" />
          </mxGeometry>
        </mxCell>
        <mxCell id="EGtFK9P1O77gnGLV0rn0-64" value="" style="line;html=1;strokeWidth=1;align=left;verticalAlign=middle;spacingTop=-1;spacingLeft=3;spacingRight=3;rotatable=0;labelPosition=right;points=[];portConstraint=eastwest;" parent="EGtFK9P1O77gnGLV0rn0-63" vertex="1">
          <mxGeometry y="26" width="280" height="8" as="geometry" />
        </mxCell>
        <mxCell id="EGtFK9P1O77gnGLV0rn0-66" value="IRequestHandler()" style="text;align=left;verticalAlign=top;spacingLeft=4;spacingRight=4;overflow=hidden;rotatable=0;points=[[0,0.5],[1,0.5]];portConstraint=eastwest;" parent="EGtFK9P1O77gnGLV0rn0-63" vertex="1">
          <mxGeometry y="34" width="280" height="26" as="geometry" />
        </mxCell>
        <mxCell id="EGtFK9P1O77gnGLV0rn0-65" value="HttpResponse handle(HttpRequest http_request)" style="text;align=left;verticalAlign=top;spacingLeft=4;spacingRight=4;overflow=hidden;rotatable=0;points=[[0,0.5],[1,0.5]];portConstraint=eastwest;" parent="EGtFK9P1O77gnGLV0rn0-63" vertex="1">
          <mxGeometry y="60" width="280" height="26" as="geometry" />
        </mxCell>
        <mxCell id="EGtFK9P1O77gnGLV0rn0-67" value="FileRequestHandler" style="swimlane;fontStyle=2;align=center;verticalAlign=top;childLayout=stackLayout;horizontal=1;startSize=26;horizontalStack=0;resizeParent=1;resizeLast=0;collapsible=1;marginBottom=0;rounded=0;shadow=0;strokeWidth=1;" parent="WIyWlLk6GJQsqaUBKTNV-1" vertex="1">
          <mxGeometry x="869" y="540" width="280" height="66" as="geometry">
            <mxRectangle x="230" y="140" width="160" height="26" as="alternateBounds" />
          </mxGeometry>
        </mxCell>
        <mxCell id="EGtFK9P1O77gnGLV0rn0-68" value="" style="line;html=1;strokeWidth=1;align=left;verticalAlign=middle;spacingTop=-1;spacingLeft=3;spacingRight=3;rotatable=0;labelPosition=right;points=[];portConstraint=eastwest;" parent="EGtFK9P1O77gnGLV0rn0-67" vertex="1">
          <mxGeometry y="26" width="280" height="8" as="geometry" />
        </mxCell>
        <mxCell id="EGtFK9P1O77gnGLV0rn0-70" value="HttpResponse handle(HttpRequest http_request)" style="text;align=left;verticalAlign=top;spacingLeft=4;spacingRight=4;overflow=hidden;rotatable=0;points=[[0,0.5],[1,0.5]];portConstraint=eastwest;" parent="EGtFK9P1O77gnGLV0rn0-67" vertex="1">
          <mxGeometry y="34" width="280" height="26" as="geometry" />
        </mxCell>
        <mxCell id="EGtFK9P1O77gnGLV0rn0-71" value="" style="endArrow=block;dashed=1;endFill=0;endSize=12;html=1;rounded=0;" parent="WIyWlLk6GJQsqaUBKTNV-1" source="EGtFK9P1O77gnGLV0rn0-67" target="EGtFK9P1O77gnGLV0rn0-63" edge="1">
          <mxGeometry width="160" relative="1" as="geometry">
            <mxPoint x="649" y="490" as="sourcePoint" />
            <mxPoint x="809" y="490" as="targetPoint" />
          </mxGeometry>
        </mxCell>
        <mxCell id="EGtFK9P1O77gnGLV0rn0-74" value="RequestDispatcher" style="swimlane;fontStyle=2;align=center;verticalAlign=top;childLayout=stackLayout;horizontal=1;startSize=26;horizontalStack=0;resizeParent=1;resizeLast=0;collapsible=1;marginBottom=0;rounded=0;shadow=0;strokeWidth=1;" parent="WIyWlLk6GJQsqaUBKTNV-1" vertex="1">
          <mxGeometry x="389" y="786" width="380" height="86" as="geometry">
            <mxRectangle x="230" y="140" width="160" height="26" as="alternateBounds" />
          </mxGeometry>
        </mxCell>
        <mxCell id="EGtFK9P1O77gnGLV0rn0-75" value="" style="line;html=1;strokeWidth=1;align=left;verticalAlign=middle;spacingTop=-1;spacingLeft=3;spacingRight=3;rotatable=0;labelPosition=right;points=[];portConstraint=eastwest;" parent="EGtFK9P1O77gnGLV0rn0-74" vertex="1">
          <mxGeometry y="26" width="380" height="8" as="geometry" />
        </mxCell>
        <mxCell id="EGtFK9P1O77gnGLV0rn0-76" value="RequestDispatcher(unique_ptr&lt;IRequestHandler&gt; request_handler)" style="text;align=left;verticalAlign=top;spacingLeft=4;spacingRight=4;overflow=hidden;rotatable=0;points=[[0,0.5],[1,0.5]];portConstraint=eastwest;" parent="EGtFK9P1O77gnGLV0rn0-74" vertex="1">
          <mxGeometry y="34" width="380" height="26" as="geometry" />
        </mxCell>
        <mxCell id="EGtFK9P1O77gnGLV0rn0-77" value="void handleRequest(int client_socket)" style="text;align=left;verticalAlign=top;spacingLeft=4;spacingRight=4;overflow=hidden;rotatable=0;points=[[0,0.5],[1,0.5]];portConstraint=eastwest;" parent="EGtFK9P1O77gnGLV0rn0-74" vertex="1">
          <mxGeometry y="60" width="380" height="26" as="geometry" />
        </mxCell>
        <mxCell id="EGtFK9P1O77gnGLV0rn0-79" style="edgeStyle=orthogonalEdgeStyle;rounded=0;orthogonalLoop=1;jettySize=auto;html=1;" parent="WIyWlLk6GJQsqaUBKTNV-1" source="EGtFK9P1O77gnGLV0rn0-62" target="EGtFK9P1O77gnGLV0rn0-4" edge="1">
          <mxGeometry relative="1" as="geometry" />
        </mxCell>
        <mxCell id="EGtFK9P1O77gnGLV0rn0-85" style="edgeStyle=orthogonalEdgeStyle;rounded=0;orthogonalLoop=1;jettySize=auto;html=1;" parent="WIyWlLk6GJQsqaUBKTNV-1" source="EGtFK9P1O77gnGLV0rn0-81" target="EGtFK9P1O77gnGLV0rn0-74" edge="1">
          <mxGeometry relative="1" as="geometry" />
        </mxCell>
        <mxCell id="EGtFK9P1O77gnGLV0rn0-81" value="ErrorHandler" style="swimlane;fontStyle=2;align=center;verticalAlign=top;childLayout=stackLayout;horizontal=1;startSize=26;horizontalStack=0;resizeParent=1;resizeLast=0;collapsible=1;marginBottom=0;rounded=0;shadow=0;strokeWidth=1;" parent="WIyWlLk6GJQsqaUBKTNV-1" vertex="1">
          <mxGeometry x="20" y="796" width="290" height="66" as="geometry">
            <mxRectangle x="230" y="140" width="160" height="26" as="alternateBounds" />
          </mxGeometry>
        </mxCell>
        <mxCell id="EGtFK9P1O77gnGLV0rn0-82" value="" style="line;html=1;strokeWidth=1;align=left;verticalAlign=middle;spacingTop=-1;spacingLeft=3;spacingRight=3;rotatable=0;labelPosition=right;points=[];portConstraint=eastwest;" parent="EGtFK9P1O77gnGLV0rn0-81" vertex="1">
          <mxGeometry y="26" width="290" height="8" as="geometry" />
        </mxCell>
        <mxCell id="EGtFK9P1O77gnGLV0rn0-83" value="static HttpResponse handleError(StatusCode code)" style="text;align=left;verticalAlign=top;spacingLeft=4;spacingRight=4;overflow=hidden;rotatable=0;points=[[0,0.5],[1,0.5]];portConstraint=eastwest;" parent="EGtFK9P1O77gnGLV0rn0-81" vertex="1">
          <mxGeometry y="34" width="290" height="26" as="geometry" />
        </mxCell>
      </root>
    </mxGraphModel>
  </diagram>
</mxfile>
